<?xml version="1.0" standalone="no"?>
<!DOCTYPE svg PUBLIC "-//W3C//DTD SVG 20010904//EN"
 "http://www.w3.org/TR/2001/REC-SVG-20010904/DTD/svg10.dtd">
<svg version="1.0" xmlns="http://www.w3.org/2000/svg"
 width="661.000000pt" height="630.000000pt" viewBox="0 0 661.000000 630.000000"
 preserveAspectRatio="xMidYMid meet">

<g transform="translate(0.000000,630.000000) scale(0.100000,-0.100000)"
fill="#000000" stroke="none">
<path d="M0 3150 l0 -3150 3305 0 3305 0 0 3150 0 3150 -3305 0 -3305 0 0
-3150z m3145 2930 c601 -77 1137 -304 1605 -679 116 -93 362 -336 457 -451
184 -224 450 -658 430 -701 -4 -8 -29 -48 -56 -89 -27 -41 -76 -117 -108 -167
-31 -51 -61 -93 -65 -93 -5 0 -8 -5 -8 -11 0 -12 -27 -53 -384 -591 -131 -197
-242 -358 -247 -358 -5 0 -9 -6 -9 -13 0 -7 -22 -36 -49 -65 l-49 -52 -2201 0
-2201 0 0 1021 0 1021 76 92 c537 644 1252 1036 2084 1140 169 21 547 19 725
-4z m1885 -5265 l0 -85 -55 0 c-54 0 -55 0 -55 30 0 25 -4 30 -25 30 -23 0
-25 -4 -25 -45 l0 -44 78 -3 77 -3 0 -145 0 -145 -135 0 -135 0 0 64 0 65 54
0 c34 1 55 -3 58 -11 3 -7 16 -13 29 -13 21 0 24 5 24 39 0 38 0 38 -46 45
-26 3 -62 6 -80 6 -27 0 -35 5 -40 23 -7 29 2 253 11 267 4 6 61 10 136 10
l129 0 0 -85z m284 77 c2 -4 2 -71 -1 -150 l-6 -142 -78 0 -79 0 0 -100 0
-100 -55 0 -55 0 0 244 0 245 53 4 c104 7 216 7 221 -1z m284 -79 l3 -83 -56
0 c-54 0 -55 0 -55 30 0 25 -4 30 -24 30 -24 0 -24 -2 -28 -107 -4 -153 -1
-173 28 -173 13 0 24 5 24 10 0 6 25 10 55 10 l55 0 0 -64 0 -64 -137 1 -138
2 -1 175 c-1 96 1 205 4 242 l4 67 57 3 c31 2 90 4 131 3 l75 0 3 -82z m287
77 c4 -6 3 -44 0 -85 l-7 -75 -48 0 c-46 0 -49 2 -55 30 -5 23 -12 30 -31 30
-22 0 -24 -4 -24 -45 l0 -45 80 0 80 0 0 -107 c0 -58 3 -103 8 -99 4 4 7 92 7
196 0 104 2 191 5 194 3 3 65 8 138 11 l132 5 0 -85 0 -85 -55 0 c-54 0 -55 0
-55 30 0 25 -4 30 -25 30 -23 0 -25 -4 -25 -45 0 -43 1 -45 30 -45 29 0 30 -1
30 -49 0 -51 -9 -61 -52 -61 -16 0 -19 -5 -14 -22 3 -13 6 -31 6 -40 0 -12 8
-18 25 -18 14 0 25 5 25 10 0 6 25 10 55 10 l56 0 -3 -62 -3 -63 -277 -2 -278
-3 0 68 0 68 55 0 c38 0 55 -4 55 -13 0 -7 11 -13 25 -13 22 0 25 4 25 39 0
38 0 38 -46 45 -26 3 -62 6 -80 6 l-34 0 0 143 c0 79 3 147 7 150 11 12 261 8
268 -3z"/>
<path d="M5150 750 c0 -36 3 -40 25 -40 23 0 25 4 25 40 0 36 -2 40 -25 40
-22 0 -25 -4 -25 -40z"/>
</g>
</svg>
